<?xml version="1.0" encoding="utf-8"?>
<!-- Generator: Adobe Illustrator 25.0.0, SVG Export Plug-In . SVG Version: 6.00 Build 0)  -->
<svg version="1.1" id="Layer_1" xmlns="http://www.w3.org/2000/svg" xmlns:xlink="http://www.w3.org/1999/xlink" x="0px" y="0px"
	 viewBox="0 0 320 400" style="enable-background:new 0 0 320 400;" xml:space="preserve">
<style type="text/css">
	.st0{fill:#282828;}
	.st1{fill:#E98925;}
	.st2{fill:#DE4A9A;}
	.st3{fill:#8E489C;}
</style>
<g>
	<path class="st0" d="M82.39,82h70.1c16.76,0,31.58,3.17,44.44,9.58c12.85,6.39,22.85,15.4,29.98,27
		c7.12,11.6,10.69,25.15,10.69,40.56c0,15.43-3.57,28.97-10.69,40.57c-7.13,11.63-17.14,20.62-29.98,27
		c-12.86,6.39-27.68,9.6-44.44,9.6h-70.1V82z M150.73,206.99c15.44,0,27.75-4.3,36.93-12.89c9.19-8.61,13.78-20.26,13.78-34.95
		c0-14.69-4.59-26.34-13.78-34.95c-9.18-8.6-21.48-12.9-36.93-12.9H118.1v95.69H150.73z"/>
	<g>
		
			<ellipse transform="matrix(0.1606 -0.987 0.987 0.1606 -215.4592 350.5837)" class="st1" cx="98.39" cy="301.97" rx="16" ry="16"/>
		<path class="st2" d="M173.87,301.97c0,8.85-7.18,16.03-16.03,16.03c-8.85,0-16.03-7.18-16.03-16.03c0-8.86,7.18-16.03,16.03-16.03
			C166.69,285.94,173.87,293.11,173.87,301.97z"/>
		<path class="st3" d="M233.84,301.97c0,8.7-7.06,15.77-15.76,15.77c-8.72,0-15.78-7.06-15.78-15.77c0-8.72,7.05-15.77,15.78-15.77
			C226.78,286.2,233.84,293.25,233.84,301.97z"/>
	</g>
</g>
</svg>
