<?xml version="1.0" encoding="UTF-8" standalone="no"?><!DOCTYPE svg PUBLIC "-//W3C//DTD SVG 1.1//EN" "http://www.w3.org/Graphics/SVG/1.1/DTD/svg11.dtd"><svg width="100%" height="100%" viewBox="0 0 320 400" version="1.1" xmlns="http://www.w3.org/2000/svg" xmlns:xlink="http://www.w3.org/1999/xlink" xml:space="preserve" xmlns:serif="http://www.serif.com/" style="fill-rule:evenodd;clip-rule:evenodd;stroke-linejoin:round;stroke-miterlimit:2;"><g><path d="M84.74,83.33l69.16,0c16.53,0 31.15,3.13 43.84,9.45c12.67,6.31 22.55,15.19 29.58,26.64c7.03,11.45 10.55,24.81 10.55,40.02c0,15.23 -3.52,28.58 -10.55,40.02c-7.03,11.47 -16.91,20.34 -29.58,26.64c-12.68,6.3 -27.31,9.47 -43.84,9.47l-69.16,0l0,-152.24Zm67.42,123.3c15.23,0 27.37,-4.24 36.43,-12.71c9.07,-8.49 13.6,-19.98 13.6,-34.48c0,-14.49 -4.53,-25.98 -13.6,-34.47c-9.06,-8.48 -21.19,-12.73 -36.43,-12.73l-32.19,0l0,94.4l32.19,0l0,-0.01Z" style="fill:#e5e5e5;fill-rule:nonzero;stroke:#e5e5e5;stroke-width:1px;"/><g><g><path d="M81.844,298.644c1.418,-8.716 9.646,-14.641 18.362,-13.222c8.716,1.418 14.641,9.646 13.222,18.362c-1.418,8.716 -9.646,14.641 -18.362,13.222c-8.716,-1.418 -14.641,-9.646 -13.222,-18.362Z" style="fill:#e78824;stroke:#fafafa;stroke-width:1px;"/></g><path d="M173.12,301.21c0,8.85 -7.18,16.03 -16.03,16.03c-8.85,0 -16.03,-7.18 -16.03,-16.03c0,-8.86 7.18,-16.03 16.03,-16.03c8.85,0 16.03,7.17 16.03,16.03Z" style="fill:#de4a98;fill-rule:nonzero;stroke:#fafafa;stroke-width:1px;"/><path d="M233.1,301.21c0,8.7 -7.06,15.77 -15.76,15.77c-8.72,0 -15.78,-7.06 -15.78,-15.77c0,-8.72 7.05,-15.77 15.78,-15.77c8.7,0 15.76,7.06 15.76,15.77Z" style="fill:#8e499b;fill-rule:nonzero;stroke:#fafafa;stroke-width:1px;"/></g></g></svg>