<?xml version="1.0" encoding="utf-8"?>
<!-- Generator: Adobe Illustrator 25.0.0, SVG Export Plug-In . SVG Version: 6.00 Build 0)  -->
<svg version="1.1" id="Layer_1" xmlns="http://www.w3.org/2000/svg" xmlns:xlink="http://www.w3.org/1999/xlink" x="0px" y="0px"
	 viewBox="0 0 320 400" style="enable-background:new 0 0 320 400;" xml:space="preserve">
<style type="text/css">
	.st0{fill:#282827;}
	.st1{fill:#E78824;}
	.st2{fill:#DE4A98;}
	.st3{fill:#8E499B;}
</style>
<g>
	<path class="st0" d="M84.74,83.33h69.16c16.53,0,31.15,3.13,43.84,9.45c12.67,6.31,22.55,15.19,29.58,26.64
		c7.03,11.45,10.55,24.81,10.55,40.02c0,15.23-3.52,28.58-10.55,40.02c-7.03,11.47-16.91,20.34-29.58,26.64
		c-12.68,6.3-27.31,9.47-43.84,9.47H84.74V83.33z M152.16,206.63c15.23,0,27.37-4.24,36.43-12.71c9.07-8.49,13.6-19.98,13.6-34.48
		c0-14.49-4.53-25.98-13.6-34.47c-9.06-8.48-21.19-12.73-36.43-12.73h-32.19v94.4H152.16z"/>
	<g>
		
			<ellipse transform="matrix(0.1606 -0.987 0.987 0.1606 -215.3394 349.2099)" class="st1" cx="97.64" cy="301.21" rx="16" ry="16"/>
		<path class="st2" d="M173.12,301.21c0,8.85-7.18,16.03-16.03,16.03c-8.85,0-16.03-7.18-16.03-16.03c0-8.86,7.18-16.03,16.03-16.03
			C165.94,285.18,173.12,292.35,173.12,301.21z"/>
		<path class="st3" d="M233.1,301.21c0,8.7-7.06,15.77-15.76,15.77c-8.72,0-15.78-7.06-15.78-15.77c0-8.72,7.05-15.77,15.78-15.77
			C226.04,285.44,233.1,292.5,233.1,301.21z"/>
	</g>
</g>
</svg>
